<?xml version="1.0" standalone="no"?><svg xmlns="http://www.w3.org/2000/svg" viewBox="0 0 1440 320"><path fill="#ffd700" fill-opacity="1" d="M0,96L16,133.3C32,171,64,245,96,256C128,267,160,213,192,176C224,139,256,117,288,138.7C320,160,352,224,384,224C416,224,448,160,480,160C512,160,544,224,576,245.3C608,267,640,245,672,208C704,171,736,117,768,128C800,139,832,213,864,234.7C896,256,928,224,960,186.7C992,149,1024,107,1056,106.7C1088,107,1120,149,1152,160C1184,171,1216,149,1248,138.7C1280,128,1312,128,1344,117.3C1376,107,1408,85,1424,74.7L1440,64L1440,320L1424,320C1408,320,1376,320,1344,320C1312,320,1280,320,1248,320C1216,320,1184,320,1152,320C1120,320,1088,320,1056,320C1024,320,992,320,960,320C928,320,896,320,864,320C832,320,800,320,768,320C736,320,704,320,672,320C640,320,608,320,576,320C544,320,512,320,480,320C448,320,416,320,384,320C352,320,320,320,288,320C256,320,224,320,192,320C160,320,128,320,96,320C64,320,32,320,16,320L0,320Z"></path></svg>